<?xml version="1.0" standalone="no"?><!DOCTYPE svg PUBLIC "-//W3C//DTD SVG 1.1//EN" "http://www.w3.org/Graphics/SVG/1.1/DTD/svg11.dtd"><svg t="1545895411182" class="icon" style="" viewBox="0 0 1024 1024" version="1.1" xmlns="http://www.w3.org/2000/svg" p-id="5530" xmlns:xlink="http://www.w3.org/1999/xlink" width="50" height="50"><defs><style type="text/css"></style></defs><path d="M619.2 481.2c-16-50.1-62.8-86.4-118.1-86.4-68.5 0-124 55.7-124 124.4H411c1.7-50.9 39.3-90.5 90.2-90.5 38.1 0 76.2 23.4 87.6 67.9h-31.3v22.6h67.6l30.8-56.5-19.5-11.3-17.2 29.8zM501.9 625.1c-38.1 0-76.2-23.4-87.6-67.9h31.3v-22.6H378l-30.8 56.5 19.5 11.3 17.2-29.8c16 50.1 62.8 86.4 118.1 86.4 68.5 0 124-55.7 124-124.4h-34c-1.7 50.9-39.3 90.5-90.1 90.5z m15.4-380v-17.8c-115.2 0-209 91.9-212.7 206.7v2.8l17.7 4.1c0-108.1 87.3-195.8 195-195.8z m257.2 195.8c-3 0-6 0.1-9 0.2 0.1-3 0.2-6.1 0.2-9.2 0-142.6-115.1-258.1-257.1-258.1-130.1 0-237.6 96.9-254.7 222.8-100.2 5.6-179.7 89-179.7 191 0 104.2 83 188.9 186.2 191.2v0.1h523.1v-0.2c88.9-4.6 159.6-78.5 159.6-168.9-0.2-93.2-75.6-168.9-168.6-168.9z m8.8 302.3l0.1 0.3H269.1v-0.1c-1.5 0.1-2.9 0.1-4.4 0.1-85.7 0-155.2-69.7-155.2-155.7 0-86 69.5-155.7 155.2-155.7 7.5 0 14.9 0.5 22.1 1.6l0.1-1.6 0.7-20.3h0.2C298 298.4 392.9 209.6 508.5 209.6c122.4 0 221.6 99.6 221.6 222.5 0 18.2-2.2 35.9-6.3 52.8l6.3-1.5v0.8c3.4-1.2 6.9-2.3 10.5-3.2l6.6-1.6c8.8-1.8 17.9-2.8 27.2-2.8 73.4 0 133 59.8 133 133.5 0.1 70.7-54.8 128.6-124.1 133.1z" fill="#8a8a8a" p-id="5531"></path></svg>