<?xml version="1.0" standalone="no"?><!DOCTYPE svg PUBLIC "-//W3C//DTD SVG 1.1//EN" "http://www.w3.org/Graphics/SVG/1.1/DTD/svg11.dtd"><svg t="1545887405607" class="icon" style="" viewBox="0 0 1109 1024" version="1.1" xmlns="http://www.w3.org/2000/svg" p-id="2392" id="mx_n_1545887405613" xmlns:xlink="http://www.w3.org/1999/xlink" width="138.625" height="128"><defs><style type="text/css"></style></defs><path d="M134.841173 721.92A415.573333 415.573333 0 0 1 0.014507 414.293333 410.88 410.88 0 0 1 406.62784 0a410.88 410.88 0 0 1 406.613333 414.293333 416 416 0 0 1-105.813333 278.186667L395.961173 1024z" fill="#98D5A4" p-id="2393" data-spm-anchor-id="a313x.7781069.0.i7" class=""></path><path d="M391.694507 721.92A415.573333 415.573333 0 0 1 256.014507 414.293333 410.453333 410.453333 0 0 1 663.481173 0a410.88 410.88 0 0 1 406.613334 414.293333 416 416 0 0 1-105.813334 278.186667L652.814507 1024z" fill="#BCBCBC" p-id="2394" data-spm-anchor-id="a313x.7781069.0.i6" class=""></path><path d="M369.081173 412.586667a298.666667 297.813333 0 1 0 597.333334 0 298.666667 297.813333 0 1 0-597.333334 0Z" fill="#FFFFFF" p-id="2395" data-spm-anchor-id="a313x.7781069.0.i4" class=""></path><path d="M865.294507 413.44h-193.706667V220.16a21.333333 21.333333 0 0 0-42.666667 0v213.333333a20.906667 20.906667 0 0 0 21.333334 20.906667h213.333333a20.906667 20.906667 0 0 0 0-42.666667" fill="#BCBCBC" p-id="2396" data-spm-anchor-id="a313x.7781069.0.i5" class=""></path></svg>